<svg name="precip-wintry-mix" class="styles--icon--xXYVJ Icon--icon--ySD-o" fill="none" xmlns="http://www.w3.org/2000/svg" viewBox="0 0 21 20">
  <title>Mixed precipitation</title>
  <path fill-rule="evenodd" clip-rule="evenodd" d="M13.232 16.183c.472.471 1.11.736 1.776.738a2.518 2.518 0 0 0 2.513-2.494 2.958 2.958 0 0 0-.447-1.449v-.001l-2.066-3.29-2.077 3.31a2.92 2.92 0 0 0-.436 1.43c.006.659.27 1.29.738 1.756Zm-1.987-1.775a4.175 4.175 0 0 1 .625-2.072l2.784-4.435a.434.434 0 0 1 .708 0l2.772 4.414c.393.629.613 1.351.637 2.093a3.767 3.767 0 0 1-3.763 3.763 3.768 3.768 0 0 1-3.763-3.763Z" fill="currentColor"></path>
  <path d="M5.55 9.57a.644.644 0 1 0 .911.912l.686-.686v1.172a.645.645 0 0 0 1.29 0V9.796l.686.686a.644.644 0 1 0 .911-.912L8.436 7.973v-.61h.61l1.598 1.598a.645.645 0 1 0 .911-.912l-.686-.686h1.172a.645.645 0 0 0 0-1.289h-1.172l.686-.686a.645.645 0 1 0-.911-.912L9.046 6.074h-.61v-.61l1.598-1.597a.645.645 0 0 0-.911-.912l-.687.687V2.469a.645.645 0 1 0-1.289 0v1.173l-.686-.687a.645.645 0 0 0-.911.912l1.597 1.598v.61h-.61l-1.597-1.6a.645.645 0 0 0-.911.912l.686.686H3.543a.645.645 0 1 0 0 1.29h1.172l-.686.685a.645.645 0 0 0 .911.912l1.598-1.598h.61v.61L5.55 9.57Z" fill="currentColor"></path>
</svg>