<svg name="pause--filled" class="TimeLine--playPauseIcon--24wJY Icon--icon--ySD-o" fill="none" xmlns="http://www.w3.org/2000/svg" viewBox="0 0 20 21">
  <title>Pause</title>
  <path fill-rule="evenodd" clip-rule="evenodd" d="M6.25 4.25H7.5A1.25 1.25 0 0 1 8.75 5.5v10a1.25 1.25 0 0 1-1.25 1.25H6.25A1.25 1.25 0 0 1 5 15.5v-10a1.25 1.25 0 0 1 1.25-1.25Zm6.25 0h1.25A1.25 1.25 0 0 1 15 5.5v10a1.25 1.25 0 0 1-1.25 1.25H12.5a1.25 1.25 0 0 1-1.25-1.25v-10a1.25 1.25 0 0 1 1.25-1.25Z" fill="currentColor"></path>
</svg>