<svg name="precip-rain" class="styles--icon--xXYVJ Icon--icon--ySD-o" fill="none" xmlns="http://www.w3.org/2000/svg" viewBox="0 0 20 21">
  <title>Rain drop</title>
  <path fill-rule="evenodd" clip-rule="evenodd" d="M6.025 16.35A5.633 5.633 0 0 0 10 18a5.633 5.633 0 0 0 5.625-5.625 6.29 6.29 0 0 0-.952-3.13L10.53 2.649a.65.65 0 0 0-1.06 0L5.31 9.278c-.578.932-.9 2-.934 3.097a5.632 5.632 0 0 0 1.65 3.976Zm.361-6.44L10 4.155l3.595 5.723c.475.75.744 1.61.78 2.497a4.375 4.375 0 1 1-8.75 0 4.986 4.986 0 0 1 .761-2.465ZM10 14.25v1.25a3.29 3.29 0 0 0 3.125-3.125h-1.25A2.06 2.06 0 0 1 10 14.25Z" fill="currentColor"></path>
</svg>