<svg name="precip-snow" class="styles--icon--xXYVJ Icon--icon--ySD-o" fill="none" xmlns="http://www.w3.org/2000/svg" viewBox="0 0 24 24">
  <title>Snowflake</title>
  <path fill-rule="evenodd" clip-rule="evenodd" d="M12 2a.75.75 0 0 0-.75.75v4.128L8.641 4.27a.75.75 0 0 0-1.06 1.061L11.25 9v2.25H9L5.33 7.58a.75.75 0 0 0-1.06 1.061l2.608 2.609H2.75a.75.75 0 0 0 0 1.5h4.128L4.27 15.359a.75.75 0 0 0 1.06 1.06L9 12.75h2.25V15l-3.67 3.67a.75.75 0 0 0 1.061 1.06l2.609-2.608v4.128a.75.75 0 0 0 1.5 0v-4.128l2.609 2.609a.75.75 0 1 0 1.06-1.061L12.75 15v-2.25H15l3.67 3.67a.75.75 0 0 0 1.06-1.061l-2.608-2.609h4.128a.75.75 0 0 0 0-1.5h-4.128l2.608-2.609a.75.75 0 1 0-1.06-1.06L15 11.25h-2.25V9l3.67-3.67a.75.75 0 0 0-1.061-1.06L12.75 6.877V2.75A.75.75 0 0 0 12 2Z" fill="currentColor"></path>
</svg>